:FULLY-SPECIFIED
:FORCE-ALL-JOINTS-BE-3DOF
:DEGREES
2956
root -1.85064 15.5472 -30.4778 13.1109 -59.4017 -14.74
lfemur -33.2953 19.4088 -4.018
ltibia 47.1911 -0 0
lfoot -5.01404 4.88202 -0.546503
ltoes -27.3654 0 0
rfemur -24.8081 -10.2614 18.2665
rtibia 60.0941 -0 0
rfoot -22.4373 -19.1666 0.00609195
rtoes -15.6323 0 0
lowerback 11.3414 4.01092 0.0305402
upperback -3.29692 5.52436 1.61444
thorax -9.99364 2.69407 0.453012
lowerneck -4.82784 3.05812 -2.34087
upperneck 9.87431 3.92251 3.52322
head 4.0328 2.00629 1.48077
lclavicle 6.58337e-15 -2.4568e-15 -3.42429e-30
lhumerus -13.0317 0.133204 84.9495
lradius 66.0736 -0 0
lwrist -19.3304 0 0
lhand -37.2426 29.7742 0.037802
lfingers 7.12502 -0 0
lthumb -10.3074 59.4726 0.0413636
rclavicle 6.58337e-15 -2.4568e-15 -3.42429e-30
rhumerus -40.9488 31.9956 -90.2449
rradius 76.8725 -0 0
rwrist -44.2301 0 0
rhand -6.84064 -31.092 0.334017
rfingers 7.12502 -0 0
rthumb 18.9996 -59.8679 0.407545
2957
root -1.84078 15.5516 -30.4865 13.0291 -59.2047 -14.6517
lfemur -33.238 19.3381 -4.02364
ltibia 47.1535 -0 0
lfoot -5.05309 4.90136 -0.546707
ltoes -27.4067 0 0
rfemur -24.7854 -10.2287 18.2644
rtibia 60.0229 -0 0
rfoot -22.4041 -19.1664 0.00609422
rtoes -15.6396 0 0
lowerback 11.3242 4.00438 0.0274148
upperback -3.30057 5.51512 1.61495
thorax -9.98774 2.69002 0.458167
lowerneck -4.83345 3.03256 -2.35761
upperneck 9.88301 3.88864 3.53228
head 4.03662 1.98946 1.4848
lclavicle 6.66567e-15 -2.39953e-15 -3.42556e-30
lhumerus -13.0856 0.107982 84.9635
lradius 65.948 -0 0
lwrist -19.3314 0 0
lhand -37.2304 29.7785 0.0378161
lfingers 7.12502 -0 0
lthumb -10.2956 59.4774 0.041379
rclavicle 6.66567e-15 -2.39953e-15 -3.42556e-30
rhumerus -40.9199 31.9154 -90.2059
rradius 76.7351 -0 0
rwrist -44.0781 0 0
rhand -6.87691 -31.1048 0.334141
rfingers 7.12502 -0 0
rthumb 18.9647 -59.884 0.407697
2958
root -1.83091 15.5561 -30.4952 12.9483 -59.0075 -14.5645
lfemur -33.1808 19.2674 -4.02935
ltibia 47.1159 -0 0
lfoot -5.09213 4.92071 -0.546898
ltoes -27.4479 0 0
rfemur -24.7628 -10.1961 18.2624
rtibia 59.9516 -0 0
rfoot -22.3709 -19.1661 0.00609635
rtoes -15.647 0 0
lowerback 11.307 3.99783 0.0242915
upperback -3.30422 5.50588 1.61547
thorax -9.98183 2.68596 0.463321
lowerneck -4.83906 3.00701 -2.37434
upperneck 9.89169 3.85477 3.54133
head 4.04043 1.97263 1.48883
lclavicle 6.74797e-15 -2.34227e-15 -3.42675e-30
lhumerus -13.1396 0.0827731 84.9775
lradius 65.8224 -0 0
lwrist -19.3323 0 0
lhand -37.2182 29.7828 0.0378293
lfingers 7.12502 -0 0
lthumb -10.2838 59.4822 0.0413935
rclavicle 6.74797e-15 -2.34227e-15 -3.42675e-30
rhumerus -40.891 31.8352 -90.1669
rradius 76.5977 -0 0
rwrist -43.926 0 0
rhand -6.91317 -31.1175 0.334258
rfingers 7.12502 -0 0
rthumb 18.9299 -59.9002 0.40784
2959
root -1.82105 15.5606 -30.5039 12.8686 -58.8103 -14.4784
lfemur -33.1235 19.1968 -4.03513
ltibia 47.0783 -0 0
lfoot -5.13117 4.94005 -0.547076
ltoes -27.4892 0 0
rfemur -24.7401 -10.1634 18.2604
rtibia 59.8803 -0 0
rfoot -22.3377 -19.1659 0.00609833
rtoes -15.6544 0 0
lowerback 11.2898 3.99129 0.0211702
upperback -3.30786 5.49664 1.61599
thorax -9.97593 2.68191 0.468475
lowerneck -4.84465 2.98146 -2.39106
upperneck 9.90037 3.82089 3.55037
head 4.04425 1.95581 1.49287
lclavicle 6.83027e-15 -2.28501e-15 -3.42786e-30
lhumerus -13.1936 0.0575775 84.9915
lradius 65.6968 -0 0
lwrist -19.3333 0 0
lhand -37.206 29.787 0.0378415
lfingers 7.12502 -0 0
lthumb -10.2721 59.4871 0.0414069
rclavicle 6.83027e-15 -2.28501e-15 -3.42786e-30
rhumerus -40.8623 31.755 -90.128
rradius 76.4603 -0 0
rwrist -43.7739 0 0
rhand -6.94944 -31.1302 0.334367
rfingers 7.12502 -0 0
rthumb 18.895 -59.9163 0.407972
2960
root -1.81118 15.565 -30.5126 12.7899 -58.613 -14.3932
lfemur -33.0663 19.1261 -4.04099
ltibia 47.0407 -0 0
lfoot -5.17021 4.95939 -0.547241
ltoes -27.5304 0 0
rfemur -24.7174 -10.1308 18.2584
rtibia 59.809 -0 0
rfoot -22.3045 -19.1656 0.00610016
rtoes -15.6618 0 0
lowerback 11.2726 3.98474 0.0180508
upperback -3.31151 5.4874 1.61651
thorax -9.97002 2.67785 0.473628
lowerneck -4.85024 2.9559 -2.40779
upperneck 9.90904 3.78702 3.55941
head 4.04806 1.93898 1.4969
lclavicle 6.91257e-15 -2.22775e-15 -3.42889e-30
lhumerus -13.2476 0.0323953 85.0056
lradius 65.5713 -0 0
lwrist -19.3343 0 0
lhand -37.1938 29.7913 0.0378529
lfingers 7.12502 -0 0
lthumb -10.2603 59.4919 0.0414193
rclavicle 6.91257e-15 -2.22775e-15 -3.42889e-30
rhumerus -40.8336 31.6747 -90.0893
rradius 76.3229 -0 0
rwrist -43.6218 0 0
rhand -6.9857 -31.1429 0.334467
rfingers 7.12502 -0 0
rthumb 18.8601 -59.9324 0.408095
2961
root -1.80132 15.5695 -30.5212 12.7122 -58.4157 -14.3091
lfemur -33.0091 19.0555 -4.04692
ltibia 47.0032 -0 0
lfoot -5.20925 4.97873 -0.547392
ltoes -27.5717 0 0
rfemur -24.6948 -10.0981 18.2564
rtibia 59.7377 -0 0
rfoot -22.2713 -19.1654 0.00610185
rtoes -15.6692 0 0
lowerback 11.2555 3.97819 0.0149334
upperback -3.31515 5.47816 1.61703
thorax -9.96412 2.6738 0.478781
lowerneck -4.85582 2.93034 -2.42451
upperneck 9.91771 3.75314 3.56844
head 4.05188 1.92215 1.50093
lclavicle 6.99487e-15 -2.17049e-15 -3.42984e-30
lhumerus -13.3016 0.00722623 85.0197
lradius 65.4457 -0 0
lwrist -19.3353 0 0
lhand -37.1816 29.7956 0.0378633
lfingers 7.12502 -0 0
lthumb -10.2486 59.4968 0.0414307
rclavicle 6.99487e-15 -2.17049e-15 -3.42984e-30
rhumerus -40.8051 31.5945 -90.0505
rradius 76.1855 -0 0
rwrist -43.4698 0 0
rhand -7.02196 -31.1556 0.33456
rfingers 7.12502 -0 0
rthumb 18.8252 -59.9486 0.408208
2962
root -1.79145 15.574 -30.5299 12.6354 -58.2183 -14.2259
lfemur -32.9519 18.9849 -4.05292
ltibia 46.9656 -0 0
lfoot -5.24829 4.99808 -0.547531
ltoes -27.6129 0 0
rfemur -24.6721 -10.0655 18.2545
rtibia 59.6664 -0 0
rfoot -22.2381 -19.1651 0.00610339
rtoes -15.6766 0 0
lowerback 11.2383 3.97164 0.0118181
upperback -3.3188 5.46893 1.61755
thorax -9.95821 2.66974 0.483933
lowerneck -4.8614 2.90478 -2.44123
upperneck 9.92637 3.71926 3.57747
head 4.05569 1.90532 1.50495
lclavicle 7.07717e-15 -2.11322e-15 -3.4307e-30
lhumerus -13.3556 -0.0179295 85.0338
lradius 65.3201 -0 0
lwrist -19.3362 0 0
lhand -37.1695 29.7998 0.0378729
lfingers 7.12502 -0 0
lthumb -10.2368 59.5016 0.0414412
rclavicle 7.07717e-15 -2.11322e-15 -3.4307e-30
rhumerus -40.7766 31.5142 -90.0119
rradius 76.0481 -0 0
rwrist -43.3177 0 0
rhand -7.05823 -31.1683 0.334644
rfingers 7.12502 -0 0
rthumb 18.7903 -59.9647 0.408311
2963
root -1.78159 15.5785 -30.5386 12.5597 -58.0208 -14.1437
lfemur -32.8947 18.9142 -4.059
ltibia 46.928 -0 0
lfoot -5.28733 5.01742 -0.547656
ltoes -27.6542 0 0
rfemur -24.6494 -10.0328 18.2525
rtibia 59.5951 -0 0
rfoot -22.2049 -19.1649 0.00610478
rtoes -15.6839 0 0
lowerback 11.2211 3.96509 0.00870471
upperback -3.32245 5.45969 1.61807
thorax -9.95231 2.66569 0.489085
lowerneck -4.86696 2.87922 -2.45794
upperneck 9.93503 3.68538 3.5865
head 4.0595 1.88849 1.50898
lclavicle 7.15946e-15 -2.05596e-15 -3.43148e-30
lhumerus -13.4096 -0.0430719 85.0479
lradius 65.1945 -0 0
lwrist -19.3372 0 0
lhand -37.1573 29.8041 0.0378815
lfingers 7.12502 -0 0
lthumb -10.225 59.5064 0.0414506
rclavicle 7.15946e-15 -2.05596e-15 -3.43148e-30
rhumerus -40.7482 31.4339 -89.9734
rradius 75.9107 -0 0
rwrist -43.1656 0 0
rhand -7.09449 -31.1811 0.334721
rfingers 7.12502 -0 0
rthumb 18.7555 -59.9808 0.408404
